<?xml version="1.0" standalone="no"?>
<!DOCTYPE svg PUBLIC "-//W3C//DTD SVG 20010904//EN"
 "http://www.w3.org/TR/2001/REC-SVG-20010904/DTD/svg10.dtd">
<svg version="1.0" xmlns="http://www.w3.org/2000/svg"
 width="198.000000pt" height="193.000000pt" viewBox="0 0 198.000000 193.000000"
 preserveAspectRatio="xMidYMid meet">

<g transform="translate(0.000000,193.000000) scale(0.100000,-0.100000)"
fill="#000000" stroke="none">
<path d="M872 1699 c-171 -22 -301 -87 -427 -214 -152 -151 -215 -304 -215
-519 0 -686 868 -993 1303 -461 113 138 175 329 164 505 -8 114 -24 178 -70
273 -110 230 -317 380 -572 417 -79 11 -94 11 -183 -1z m313 -42 c114 -38 198
-90 290 -182 197 -197 262 -487 169 -747 -170 -469 -746 -630 -1139 -318 -105
83 -197 222 -240 360 -9 31 -19 105 -22 170 -5 97 -2 128 16 198 68 262 265
463 523 532 107 29 292 23 403 -13z"/>
<path d="M910 1548 c-12 -29 -24 -59 -27 -65 -3 -7 0 -13 5 -13 6 0 12 10 14
23 4 31 58 38 58 8 0 -14 6 -21 20 -21 19 0 19 3 -10 60 -17 33 -32 60 -34 60
-2 0 -13 -24 -26 -52z m30 -3 c0 -8 -4 -15 -10 -15 -5 0 -10 7 -10 15 0 8 5
15 10 15 6 0 10 -7 10 -15z"/>
<path d="M770 1570 c0 -5 5 -10 10 -10 6 0 10 5 10 10 0 6 -4 10 -10 10 -5 0
-10 -4 -10 -10z"/>
<path d="M1121 1549 c-14 -42 -13 -50 3 -21 12 23 14 21 36 -40 l23 -63 18 40
c21 48 24 70 4 35 -13 -24 -14 -24 -21 -5 -34 95 -45 104 -63 54z"/>
<path d="M724 1510 l5 -45 -29 35 c-19 21 -33 31 -39 25 -6 -6 7 -28 36 -58
l45 -48 -4 40 c-2 23 -2 41 0 41 1 0 14 -12 27 -27 13 -16 25 -26 27 -23 2 3
1 28 -3 55 -3 30 -6 38 -7 21 l-2 -30 -31 30 -31 29 6 -45z"/>
<path d="M1215 1540 c3 -5 8 -10 11 -10 2 0 4 5 4 10 0 6 -5 10 -11 10 -5 0
-7 -4 -4 -10z"/>
<path d="M1092 1480 c-10 -16 -10 -20 1 -20 7 0 13 9 14 20 1 11 1 20 0 20 -1
0 -8 -9 -15 -20z"/>
<path d="M1339 1444 c-7 -14 -26 -36 -41 -49 l-28 -24 37 -30 c21 -17 42 -31
47 -31 5 0 -3 9 -18 21 -29 23 -33 41 -12 58 10 9 16 8 26 -4 7 -8 17 -12 22
-9 5 3 1 12 -9 19 -17 13 -17 15 -2 30 15 15 18 15 37 -10 11 -14 23 -21 26
-16 3 5 -11 23 -32 40 l-39 30 -14 -25z"/>
<path d="M505 1410 c-26 -27 -34 -40 -23 -40 9 0 32 -18 51 -39 l35 -39 37 38
c23 23 33 40 26 44 -6 4 -11 1 -11 -7 0 -8 -8 -21 -18 -31 -18 -15 -20 -15
-38 5 -18 20 -18 21 -1 34 10 7 14 16 9 19 -6 3 -12 -1 -16 -9 -7 -20 -32 -19
-40 1 -8 20 1 33 27 43 11 4 16 11 10 14 -5 3 -27 -12 -48 -33z"/>
<path d="M855 1390 c-20 -10 -31 -24 -33 -41 -3 -22 3 -29 33 -43 35 -17 36
-17 29 -69 -3 -29 -7 -58 -10 -65 -2 -8 8 -33 22 -58 43 -74 106 -70 147 9 15
30 17 43 9 60 -6 12 -14 46 -17 75 -6 47 -5 52 13 52 22 0 52 30 52 52 0 32
-30 42 -124 43 -61 0 -101 -5 -121 -15z m221 -11 c19 -21 18 -21 -4 -39 -13
-11 -30 -16 -39 -13 -14 6 -15 -2 -10 -60 l6 -67 -64 0 -65 0 0 55 c0 46 -3
55 -17 55 -22 1 -53 23 -53 38 0 28 50 45 113 39 34 -3 71 -2 82 3 29 12 30
12 51 -11z"/>
<path d="M1455 1269 c-27 -15 -53 -25 -58 -22 -5 3 3 -18 18 -47 14 -29 29
-50 32 -47 3 3 -2 16 -11 29 -9 12 -16 26 -16 29 0 4 20 18 44 32 33 19 47 22
56 13 9 -8 9 -4 0 14 -7 14 -13 25 -14 26 0 0 -23 -12 -51 -27z"/>
<path d="M388 1245 c-10 -21 -9 -29 6 -43 16 -16 19 -16 57 6 36 21 40 21 46
6 4 -11 -1 -23 -15 -35 -17 -13 -18 -18 -8 -22 9 -4 20 6 30 26 14 30 14 33
-4 51 -18 19 -19 18 -56 -3 -44 -26 -69 -14 -39 19 10 12 13 20 6 20 -6 0 -17
-11 -23 -25z"/>
<path d="M1470 1222 c0 -15 4 -20 16 -15 9 3 12 9 7 12 -4 3 -11 10 -15 15 -5
5 -8 0 -8 -12z"/>
<path d="M1530 1226 c0 -9 5 -16 10 -16 6 0 10 4 10 9 0 6 -4 13 -10 16 -5 3
-10 -1 -10 -9z"/>
<path d="M749 1200 c-27 -16 -59 -105 -65 -183 l-7 -74 -43 -22 c-24 -11 -44
-25 -44 -31 0 -18 -37 7 -43 29 -2 11 0 24 5 29 6 6 7 27 3 51 -6 38 -9 41
-38 41 -52 0 -61 -11 -44 -53 9 -19 25 -41 37 -47 26 -14 45 -59 31 -73 -11
-11 13 -67 28 -67 4 0 13 -18 20 -41 7 -23 15 -39 18 -36 3 3 0 22 -7 42 -14
43 -10 49 33 52 18 1 39 3 47 5 12 2 15 -13 15 -83 l0 -87 27 19 c15 11 39 34
52 52 l26 32 0 -76 0 -76 108 -7 c67 -4 119 -3 135 3 15 6 40 8 57 5 l30 -6 0
76 c0 44 4 76 10 76 6 0 10 -4 10 -8 0 -11 70 -82 81 -82 5 0 6 18 3 40 -4 21
-3 59 0 84 l7 44 34 -9 c18 -5 39 -8 47 -7 14 3 15 -17 4 -67 -5 -24 -2 -22
14 13 12 23 25 42 29 42 13 0 31 59 20 65 -13 9 17 74 47 102 31 28 31 86 1
91 -28 6 -46 -28 -47 -85 0 -40 -5 -58 -21 -74 -16 -16 -23 -18 -29 -9 -4 7
-25 22 -46 34 -35 20 -38 24 -41 76 -5 73 -28 151 -54 183 -24 32 -74 37 -84
10 -3 -10 -16 -47 -28 -83 -14 -43 -28 -66 -39 -68 -11 -2 -18 3 -18 13 0 15
-2 15 -22 1 -29 -21 -58 -20 -88 1 -22 16 -23 16 -17 0 5 -12 1 -17 -12 -17
-19 0 -21 4 -63 125 -14 42 -45 56 -79 35z m277 -180 c8 0 14 -6 15 -12 0 -7
2 -98 5 -201 4 -162 2 -188 -11 -193 -9 -4 -62 -3 -118 1 l-102 7 -3 121 c-1
66 -4 122 -6 124 -2 2 -41 -5 -86 -17 -46 -12 -86 -18 -91 -13 -4 4 -10 19
-14 33 -5 24 2 29 122 88 107 52 138 63 192 67 35 2 66 7 69 10 4 3 8 1 10 -4
2 -6 10 -11 18 -11z m170 -62 c123 -62 125 -63 120 -92 -4 -16 -8 -32 -11 -34
-4 -5 -126 27 -169 44 -14 5 -16 -10 -16 -125 l0 -131 -30 0 -30 0 0 200 c0
110 2 200 5 200 3 0 61 -28 131 -62z"/>
<path d="M920 950 c0 -5 5 -10 10 -10 6 0 10 5 10 10 0 6 -4 10 -10 10 -5 0
-10 -4 -10 -10z"/>
<path d="M1000 950 c0 -5 5 -10 10 -10 6 0 10 5 10 10 0 6 -4 10 -10 10 -5 0
-10 -4 -10 -10z"/>
<path d="M920 850 c0 -5 5 -10 10 -10 6 0 10 5 10 10 0 6 -4 10 -10 10 -5 0
-10 -4 -10 -10z"/>
<path d="M1000 850 c0 -5 5 -10 10 -10 6 0 10 5 10 10 0 6 -4 10 -10 10 -5 0
-10 -4 -10 -10z"/>
<path d="M920 751 c0 -6 5 -13 10 -16 6 -3 10 1 10 9 0 9 -4 16 -10 16 -5 0
-10 -4 -10 -9z"/>
<path d="M1000 744 c0 -8 5 -12 10 -9 6 3 10 10 10 16 0 5 -4 9 -10 9 -5 0
-10 -7 -10 -16z"/>
<path d="M475 689 c-16 -16 -40 -32 -52 -35 l-23 -6 21 -29 c33 -47 65 -64 95
-51 13 7 29 23 35 36 10 21 7 32 -15 70 -15 25 -28 46 -29 45 -1 -1 -15 -14
-32 -30z m61 -35 c12 -48 -64 -91 -90 -51 -9 15 -6 23 24 47 43 36 58 37 66 4z"/>
<path d="M1382 659 c-48 -18 -44 -101 6 -120 52 -20 112 40 88 87 -11 21 -11
21 -30 -4 -11 -14 -14 -22 -7 -17 18 11 32 -15 20 -37 -13 -24 -40 -23 -73 3
-38 30 -33 72 9 79 17 3 26 8 20 12 -5 3 -20 2 -33 -3z"/>
<path d="M630 509 c-14 -23 -33 -44 -44 -48 -16 -7 -16 -9 9 -25 15 -10 25
-14 21 -8 -3 5 10 32 28 60 31 44 36 62 17 62 -4 0 -17 -18 -31 -41z"/>
<path d="M1243 534 c-8 -4 -6 -14 8 -37 27 -45 24 -48 -23 -27 -48 22 -78 25
-78 10 0 -6 8 -13 18 -16 9 -3 43 -16 75 -29 31 -13 57 -21 57 -19 0 3 -11 27
-25 55 -14 27 -23 54 -20 59 7 11 6 11 -12 4z"/>
<path d="M771 425 c-15 -68 -15 -69 0 -74 7 -2 9 1 5 8 -8 13 3 81 13 81 4 0
18 -22 31 -50 13 -27 27 -50 31 -50 3 0 12 20 18 44 6 24 13 51 17 60 3 9 1
16 -5 16 -6 0 -11 -10 -12 -22 0 -13 -4 -32 -8 -42 -6 -16 -11 -11 -32 29 -13
27 -29 51 -35 52 -6 2 -16 -21 -23 -52z"/>
<path d="M1008 428 c4 -18 7 -48 7 -65 0 -25 4 -33 18 -33 13 0 17 5 13 18 -3
9 -6 38 -7 65 -2 38 -6 47 -20 47 -16 0 -17 -5 -11 -32z"/>
<path d="M1187 413 c22 -47 22 -48 28 -41 6 5 -33 78 -41 78 -2 0 4 -17 13
-37z"/>
</g>
</svg>
